<mxfile host="Electron" modified="2023-11-24T08:22:27.979Z" agent="Mozilla/5.0 (Windows NT 10.0; Win64; x64) AppleWebKit/537.36 (KHTML, like Gecko) draw.io/22.0.2 Chrome/114.0.5735.289 Electron/25.8.4 Safari/537.36" etag="8VpC3bu26SMsfC1L76kX" version="22.0.2" type="device">
  <diagram name="Page-1" id="7-KuS8HCFaPoPZdCXigX">
    <mxGraphModel dx="3915" dy="844" grid="1" gridSize="10" guides="1" tooltips="1" connect="1" arrows="1" fold="1" page="1" pageScale="1" pageWidth="827" pageHeight="1169" math="0" shadow="0">
      <root>
        <mxCell id="0" />
        <mxCell id="1" parent="0" />
        <mxCell id="JU6RVUzTXGBhqrjvrTdc-2" value="" style="edgeStyle=orthogonalEdgeStyle;rounded=0;orthogonalLoop=1;jettySize=auto;html=1;" parent="1" source="RDN8-XmIpGmufh1Ityac-12" target="CR3sOzO-EPzYzs97Lyqt-47" edge="1">
          <mxGeometry relative="1" as="geometry">
            <Array as="points">
              <mxPoint x="-2255" y="300" />
              <mxPoint x="-2255" y="300" />
            </Array>
          </mxGeometry>
        </mxCell>
        <mxCell id="RDN8-XmIpGmufh1Ityac-1" value="" style="ellipse;whiteSpace=wrap;html=1;aspect=fixed;" parent="1" vertex="1">
          <mxGeometry x="-2410" y="160" width="50" height="50" as="geometry" />
        </mxCell>
        <mxCell id="RDN8-XmIpGmufh1Ityac-15" value="" style="endArrow=block;endFill=1;html=1;edgeStyle=orthogonalEdgeStyle;align=left;verticalAlign=top;rounded=0;entryX=-0.009;entryY=0.274;entryDx=0;entryDy=0;entryPerimeter=0;exitX=0.999;exitY=0.338;exitDx=0;exitDy=0;exitPerimeter=0;" parent="1" source="CR3sOzO-EPzYzs97Lyqt-47" target="CR3sOzO-EPzYzs97Lyqt-29" edge="1">
          <mxGeometry x="-1" relative="1" as="geometry">
            <mxPoint x="-2170" y="359.5" as="sourcePoint" />
            <mxPoint x="-2110" y="359.5" as="targetPoint" />
            <Array as="points">
              <mxPoint x="-2177" y="361" />
            </Array>
          </mxGeometry>
        </mxCell>
        <mxCell id="CR3sOzO-EPzYzs97Lyqt-29" value="" style="verticalLabelPosition=bottom;verticalAlign=middle;html=1;shape=mxgraph.basic.rect;fillColor2=none;strokeWidth=1;size=20;indent=5;align=left;" parent="1" vertex="1">
          <mxGeometry x="-2030" y="345" width="120" height="60" as="geometry" />
        </mxCell>
        <mxCell id="CR3sOzO-EPzYzs97Lyqt-34" value="&lt;b&gt;Bladeren door&amp;nbsp; items&amp;nbsp;&lt;/b&gt;" style="text;html=1;strokeColor=none;fillColor=none;align=center;verticalAlign=middle;whiteSpace=wrap;rounded=0;" parent="1" vertex="1">
          <mxGeometry x="-2012" y="362.5" width="90" height="30" as="geometry" />
        </mxCell>
        <mxCell id="CR3sOzO-EPzYzs97Lyqt-36" value="" style="verticalLabelPosition=bottom;verticalAlign=middle;html=1;shape=mxgraph.basic.rect;fillColor2=none;strokeWidth=1;size=20;indent=5;align=left;" parent="1" vertex="1">
          <mxGeometry x="-2330" y="330" width="150" height="60" as="geometry" />
        </mxCell>
        <mxCell id="CR3sOzO-EPzYzs97Lyqt-47" value="&lt;b&gt;Categorieen bekijken&amp;nbsp;&lt;/b&gt;" style="text;html=1;align=center;verticalAlign=middle;resizable=0;points=[];autosize=1;strokeColor=none;fillColor=none;" parent="1" vertex="1">
          <mxGeometry x="-2327" y="345" width="150" height="30" as="geometry" />
        </mxCell>
        <mxCell id="CR3sOzO-EPzYzs97Lyqt-53" value="" style="rounded=0;whiteSpace=wrap;html=1;" parent="1" vertex="1">
          <mxGeometry x="-1650" y="348" width="145" height="60" as="geometry" />
        </mxCell>
        <mxCell id="CR3sOzO-EPzYzs97Lyqt-57" value="&lt;b style=&quot;&quot;&gt;Toevoegen aan winkelmand&lt;/b&gt;" style="text;html=1;strokeColor=none;fillColor=none;align=center;verticalAlign=middle;whiteSpace=wrap;rounded=0;" parent="1" vertex="1">
          <mxGeometry x="-1632.5" y="360" width="110" height="30" as="geometry" />
        </mxCell>
        <mxCell id="JU6RVUzTXGBhqrjvrTdc-3" value="" style="edgeStyle=orthogonalEdgeStyle;rounded=0;orthogonalLoop=1;jettySize=auto;html=1;" parent="1" source="RDN8-XmIpGmufh1Ityac-1" target="RDN8-XmIpGmufh1Ityac-12" edge="1">
          <mxGeometry relative="1" as="geometry">
            <mxPoint x="-2360" y="185" as="sourcePoint" />
            <mxPoint x="-2255" y="285" as="targetPoint" />
          </mxGeometry>
        </mxCell>
        <mxCell id="JU6RVUzTXGBhqrjvrTdc-12" value="" style="edgeStyle=orthogonalEdgeStyle;rounded=0;orthogonalLoop=1;jettySize=auto;html=1;entryX=0.25;entryY=0;entryDx=0;entryDy=0;" parent="1" source="RDN8-XmIpGmufh1Ityac-12" target="JU6RVUzTXGBhqrjvrTdc-18" edge="1">
          <mxGeometry relative="1" as="geometry">
            <mxPoint x="-2120" y="170" as="targetPoint" />
            <Array as="points">
              <mxPoint x="-2230" y="190" />
              <mxPoint x="-2230" y="320" />
              <mxPoint x="-1817" y="320" />
            </Array>
          </mxGeometry>
        </mxCell>
        <mxCell id="RDN8-XmIpGmufh1Ityac-12" value="" style="strokeWidth=2;html=1;shape=mxgraph.flowchart.decision;whiteSpace=wrap;" parent="1" vertex="1">
          <mxGeometry x="-2265" y="160" width="20" height="50" as="geometry" />
        </mxCell>
        <mxCell id="JU6RVUzTXGBhqrjvrTdc-5" value="" style="rounded=0;whiteSpace=wrap;html=1;" parent="1" vertex="1">
          <mxGeometry x="-2177" y="40" width="120" height="60" as="geometry" />
        </mxCell>
        <mxCell id="JU6RVUzTXGBhqrjvrTdc-7" value="Zoeken&amp;nbsp;" style="text;html=1;strokeColor=none;fillColor=none;align=center;verticalAlign=middle;whiteSpace=wrap;rounded=0;" parent="1" vertex="1">
          <mxGeometry x="-2147" y="55" width="60" height="30" as="geometry" />
        </mxCell>
        <mxCell id="JU6RVUzTXGBhqrjvrTdc-34" value="" style="edgeStyle=orthogonalEdgeStyle;rounded=0;orthogonalLoop=1;jettySize=auto;html=1;" parent="1" source="JU6RVUzTXGBhqrjvrTdc-8" target="JU6RVUzTXGBhqrjvrTdc-33" edge="1">
          <mxGeometry relative="1" as="geometry" />
        </mxCell>
        <mxCell id="JU6RVUzTXGBhqrjvrTdc-8" value="" style="rounded=0;whiteSpace=wrap;html=1;" parent="1" vertex="1">
          <mxGeometry x="-1642.5" y="230" width="120" height="60" as="geometry" />
        </mxCell>
        <mxCell id="JU6RVUzTXGBhqrjvrTdc-10" value="Cart" style="text;html=1;strokeColor=none;fillColor=none;align=center;verticalAlign=middle;whiteSpace=wrap;rounded=0;" parent="1" vertex="1">
          <mxGeometry x="-1612.5" y="250" width="60" height="30" as="geometry" />
        </mxCell>
        <mxCell id="JU6RVUzTXGBhqrjvrTdc-13" value="" style="endArrow=classic;html=1;rounded=0;entryX=0;entryY=0.5;entryDx=0;entryDy=0;exitX=0.992;exitY=0.646;exitDx=0;exitDy=0;exitPerimeter=0;" parent="1" source="RDN8-XmIpGmufh1Ityac-12" target="JU6RVUzTXGBhqrjvrTdc-8" edge="1">
          <mxGeometry width="50" height="50" relative="1" as="geometry">
            <mxPoint x="-2240" y="260" as="sourcePoint" />
            <mxPoint x="-2190" y="210" as="targetPoint" />
            <Array as="points">
              <mxPoint x="-2200" y="192" />
              <mxPoint x="-2200" y="260" />
            </Array>
          </mxGeometry>
        </mxCell>
        <mxCell id="JU6RVUzTXGBhqrjvrTdc-14" value="" style="endArrow=classic;html=1;rounded=0;entryX=0;entryY=0.5;entryDx=0;entryDy=0;" parent="1" edge="1">
          <mxGeometry width="50" height="50" relative="1" as="geometry">
            <mxPoint x="-2240" y="180" as="sourcePoint" />
            <mxPoint x="-2180" y="85" as="targetPoint" />
          </mxGeometry>
        </mxCell>
        <mxCell id="JU6RVUzTXGBhqrjvrTdc-18" value="" style="rounded=0;whiteSpace=wrap;html=1;" parent="1" vertex="1">
          <mxGeometry x="-1847" y="348" width="120" height="60" as="geometry" />
        </mxCell>
        <mxCell id="JU6RVUzTXGBhqrjvrTdc-19" value="View item" style="text;html=1;strokeColor=none;fillColor=none;align=center;verticalAlign=middle;whiteSpace=wrap;rounded=0;" parent="1" vertex="1">
          <mxGeometry x="-1830" y="360" width="60" height="30" as="geometry" />
        </mxCell>
        <mxCell id="JU6RVUzTXGBhqrjvrTdc-28" style="edgeStyle=orthogonalEdgeStyle;rounded=0;orthogonalLoop=1;jettySize=auto;html=1;exitX=1;exitY=0.5;exitDx=0;exitDy=0;exitPerimeter=0;entryX=0;entryY=0.5;entryDx=0;entryDy=0;" parent="1" source="JU6RVUzTXGBhqrjvrTdc-21" target="JU6RVUzTXGBhqrjvrTdc-18" edge="1">
          <mxGeometry relative="1" as="geometry" />
        </mxCell>
        <mxCell id="JU6RVUzTXGBhqrjvrTdc-21" value="" style="strokeWidth=2;html=1;shape=mxgraph.flowchart.decision;whiteSpace=wrap;" parent="1" vertex="1">
          <mxGeometry x="-1890" y="352.5" width="20" height="50" as="geometry" />
        </mxCell>
        <mxCell id="JU6RVUzTXGBhqrjvrTdc-24" value="" style="edgeStyle=orthogonalEdgeStyle;rounded=0;orthogonalLoop=1;jettySize=auto;html=1;" parent="1" source="JU6RVUzTXGBhqrjvrTdc-18" target="JU6RVUzTXGBhqrjvrTdc-23" edge="1">
          <mxGeometry relative="1" as="geometry">
            <mxPoint x="-1790" y="405" as="sourcePoint" />
            <mxPoint x="-1790" y="495" as="targetPoint" />
            <Array as="points" />
          </mxGeometry>
        </mxCell>
        <mxCell id="JU6RVUzTXGBhqrjvrTdc-26" style="edgeStyle=orthogonalEdgeStyle;rounded=0;orthogonalLoop=1;jettySize=auto;html=1;exitX=1;exitY=0.5;exitDx=0;exitDy=0;exitPerimeter=0;entryX=0;entryY=0.5;entryDx=0;entryDy=0;" parent="1" source="JU6RVUzTXGBhqrjvrTdc-23" target="CR3sOzO-EPzYzs97Lyqt-53" edge="1">
          <mxGeometry relative="1" as="geometry" />
        </mxCell>
        <mxCell id="JU6RVUzTXGBhqrjvrTdc-23" value="" style="strokeWidth=2;html=1;shape=mxgraph.flowchart.decision;whiteSpace=wrap;" parent="1" vertex="1">
          <mxGeometry x="-1700" y="353" width="20" height="50" as="geometry" />
        </mxCell>
        <mxCell id="JU6RVUzTXGBhqrjvrTdc-25" value="" style="endArrow=classic;html=1;rounded=0;exitX=0.5;exitY=1;exitDx=0;exitDy=0;exitPerimeter=0;" parent="1" source="JU6RVUzTXGBhqrjvrTdc-23" edge="1">
          <mxGeometry width="50" height="50" relative="1" as="geometry">
            <mxPoint x="-2110" y="460" as="sourcePoint" />
            <mxPoint x="-1950" y="410" as="targetPoint" />
            <Array as="points">
              <mxPoint x="-1690" y="440" />
              <mxPoint x="-1950" y="440" />
            </Array>
          </mxGeometry>
        </mxCell>
        <mxCell id="JU6RVUzTXGBhqrjvrTdc-27" style="edgeStyle=orthogonalEdgeStyle;rounded=0;orthogonalLoop=1;jettySize=auto;html=1;exitX=1;exitY=0.5;exitDx=0;exitDy=0;entryX=0;entryY=0.5;entryDx=0;entryDy=0;entryPerimeter=0;" parent="1" source="CR3sOzO-EPzYzs97Lyqt-34" target="JU6RVUzTXGBhqrjvrTdc-21" edge="1">
          <mxGeometry relative="1" as="geometry" />
        </mxCell>
        <mxCell id="JU6RVUzTXGBhqrjvrTdc-31" style="edgeStyle=orthogonalEdgeStyle;rounded=0;orthogonalLoop=1;jettySize=auto;html=1;exitX=0.5;exitY=0;exitDx=0;exitDy=0;exitPerimeter=0;entryX=0.5;entryY=1;entryDx=0;entryDy=0;" parent="1" source="JU6RVUzTXGBhqrjvrTdc-29" target="JU6RVUzTXGBhqrjvrTdc-8" edge="1">
          <mxGeometry relative="1" as="geometry" />
        </mxCell>
        <mxCell id="JU6RVUzTXGBhqrjvrTdc-29" value="" style="strokeWidth=2;html=1;shape=mxgraph.flowchart.decision;whiteSpace=wrap;" parent="1" vertex="1">
          <mxGeometry x="-1467" y="366" width="20" height="50" as="geometry" />
        </mxCell>
        <mxCell id="JU6RVUzTXGBhqrjvrTdc-30" style="edgeStyle=orthogonalEdgeStyle;rounded=0;orthogonalLoop=1;jettySize=auto;html=1;exitX=1;exitY=0.5;exitDx=0;exitDy=0;entryX=0;entryY=0.5;entryDx=0;entryDy=0;entryPerimeter=0;" parent="1" source="CR3sOzO-EPzYzs97Lyqt-53" target="JU6RVUzTXGBhqrjvrTdc-29" edge="1">
          <mxGeometry relative="1" as="geometry" />
        </mxCell>
        <mxCell id="JU6RVUzTXGBhqrjvrTdc-32" style="edgeStyle=orthogonalEdgeStyle;rounded=0;orthogonalLoop=1;jettySize=auto;html=1;exitX=0.5;exitY=1;exitDx=0;exitDy=0;exitPerimeter=0;entryX=0.667;entryY=1.083;entryDx=0;entryDy=0;entryPerimeter=0;" parent="1" source="JU6RVUzTXGBhqrjvrTdc-29" target="CR3sOzO-EPzYzs97Lyqt-29" edge="1">
          <mxGeometry relative="1" as="geometry">
            <Array as="points">
              <mxPoint x="-1457" y="440" />
              <mxPoint x="-1950" y="440" />
            </Array>
          </mxGeometry>
        </mxCell>
        <mxCell id="JU6RVUzTXGBhqrjvrTdc-37" style="edgeStyle=orthogonalEdgeStyle;rounded=0;orthogonalLoop=1;jettySize=auto;html=1;entryX=0.75;entryY=1;entryDx=0;entryDy=0;" parent="1" source="JU6RVUzTXGBhqrjvrTdc-33" target="JU6RVUzTXGBhqrjvrTdc-18" edge="1">
          <mxGeometry relative="1" as="geometry">
            <Array as="points">
              <mxPoint x="-1380" y="450" />
              <mxPoint x="-1757" y="450" />
            </Array>
          </mxGeometry>
        </mxCell>
        <mxCell id="JU6RVUzTXGBhqrjvrTdc-39" value="" style="edgeStyle=orthogonalEdgeStyle;rounded=0;orthogonalLoop=1;jettySize=auto;html=1;" parent="1" source="JU6RVUzTXGBhqrjvrTdc-33" target="JU6RVUzTXGBhqrjvrTdc-38" edge="1">
          <mxGeometry relative="1" as="geometry" />
        </mxCell>
        <mxCell id="s-FJdiKFJ584I3QiDJJ7-6" style="edgeStyle=orthogonalEdgeStyle;rounded=0;orthogonalLoop=1;jettySize=auto;html=1;exitX=1;exitY=0.5;exitDx=0;exitDy=0;exitPerimeter=0;" edge="1" parent="1" source="JU6RVUzTXGBhqrjvrTdc-33" target="s-FJdiKFJ584I3QiDJJ7-1">
          <mxGeometry relative="1" as="geometry">
            <Array as="points">
              <mxPoint x="-1370" y="330" />
              <mxPoint x="-1220" y="330" />
            </Array>
          </mxGeometry>
        </mxCell>
        <mxCell id="JU6RVUzTXGBhqrjvrTdc-33" value="" style="strokeWidth=2;html=1;shape=mxgraph.flowchart.decision;whiteSpace=wrap;" parent="1" vertex="1">
          <mxGeometry x="-1390" y="235" width="20" height="50" as="geometry" />
        </mxCell>
        <mxCell id="JU6RVUzTXGBhqrjvrTdc-40" style="edgeStyle=orthogonalEdgeStyle;rounded=0;orthogonalLoop=1;jettySize=auto;html=1;exitX=0.5;exitY=0;exitDx=0;exitDy=0;entryX=1;entryY=0;entryDx=0;entryDy=0;" parent="1" source="JU6RVUzTXGBhqrjvrTdc-36" target="JU6RVUzTXGBhqrjvrTdc-8" edge="1">
          <mxGeometry relative="1" as="geometry" />
        </mxCell>
        <mxCell id="JU6RVUzTXGBhqrjvrTdc-36" value="" style="rounded=0;whiteSpace=wrap;html=1;" parent="1" vertex="1">
          <mxGeometry x="-1290" y="230" width="120" height="60" as="geometry" />
        </mxCell>
        <mxCell id="JU6RVUzTXGBhqrjvrTdc-38" value="Update winkelmand" style="text;html=1;strokeColor=none;fillColor=none;align=center;verticalAlign=middle;whiteSpace=wrap;rounded=0;" parent="1" vertex="1">
          <mxGeometry x="-1260" y="245" width="60" height="30" as="geometry" />
        </mxCell>
        <mxCell id="JU6RVUzTXGBhqrjvrTdc-43" value="" style="strokeWidth=2;html=1;shape=mxgraph.flowchart.decision;whiteSpace=wrap;" parent="1" vertex="1">
          <mxGeometry x="-1970" y="45" width="20" height="50" as="geometry" />
        </mxCell>
        <mxCell id="JU6RVUzTXGBhqrjvrTdc-44" style="edgeStyle=orthogonalEdgeStyle;rounded=0;orthogonalLoop=1;jettySize=auto;html=1;exitX=1;exitY=0.5;exitDx=0;exitDy=0;entryX=0;entryY=0.5;entryDx=0;entryDy=0;entryPerimeter=0;" parent="1" source="JU6RVUzTXGBhqrjvrTdc-5" target="JU6RVUzTXGBhqrjvrTdc-43" edge="1">
          <mxGeometry relative="1" as="geometry" />
        </mxCell>
        <mxCell id="JU6RVUzTXGBhqrjvrTdc-47" style="edgeStyle=orthogonalEdgeStyle;rounded=0;orthogonalLoop=1;jettySize=auto;html=1;exitX=1;exitY=0.5;exitDx=0;exitDy=0;exitPerimeter=0;entryX=0.832;entryY=-0.048;entryDx=0;entryDy=0;entryPerimeter=0;" parent="1" source="JU6RVUzTXGBhqrjvrTdc-43" target="CR3sOzO-EPzYzs97Lyqt-29" edge="1">
          <mxGeometry relative="1" as="geometry" />
        </mxCell>
        <mxCell id="JU6RVUzTXGBhqrjvrTdc-48" style="edgeStyle=orthogonalEdgeStyle;rounded=0;orthogonalLoop=1;jettySize=auto;html=1;exitX=0.5;exitY=1;exitDx=0;exitDy=0;exitPerimeter=0;entryX=0.4;entryY=1.046;entryDx=0;entryDy=0;entryPerimeter=0;" parent="1" source="JU6RVUzTXGBhqrjvrTdc-43" target="JU6RVUzTXGBhqrjvrTdc-5" edge="1">
          <mxGeometry relative="1" as="geometry">
            <Array as="points">
              <mxPoint x="-1960" y="130" />
              <mxPoint x="-2129" y="130" />
            </Array>
          </mxGeometry>
        </mxCell>
        <mxCell id="s-FJdiKFJ584I3QiDJJ7-7" value="" style="edgeStyle=orthogonalEdgeStyle;rounded=0;orthogonalLoop=1;jettySize=auto;html=1;entryX=0;entryY=0.5;entryDx=0;entryDy=0;entryPerimeter=0;" edge="1" parent="1" source="s-FJdiKFJ584I3QiDJJ7-1" target="s-FJdiKFJ584I3QiDJJ7-8">
          <mxGeometry relative="1" as="geometry" />
        </mxCell>
        <mxCell id="s-FJdiKFJ584I3QiDJJ7-1" value="Checkout" style="rounded=0;whiteSpace=wrap;html=1;" vertex="1" parent="1">
          <mxGeometry x="-1280" y="356" width="120" height="60" as="geometry" />
        </mxCell>
        <mxCell id="s-FJdiKFJ584I3QiDJJ7-2" value="Ideal" style="rounded=0;whiteSpace=wrap;html=1;" vertex="1" parent="1">
          <mxGeometry x="-1280" y="460" width="120" height="60" as="geometry" />
        </mxCell>
        <mxCell id="s-FJdiKFJ584I3QiDJJ7-9" style="edgeStyle=orthogonalEdgeStyle;rounded=0;orthogonalLoop=1;jettySize=auto;html=1;exitX=0.5;exitY=0;exitDx=0;exitDy=0;exitPerimeter=0;entryX=0.75;entryY=0;entryDx=0;entryDy=0;" edge="1" parent="1" source="s-FJdiKFJ584I3QiDJJ7-8" target="JU6RVUzTXGBhqrjvrTdc-8">
          <mxGeometry relative="1" as="geometry">
            <mxPoint x="-1480" y="-90" as="targetPoint" />
          </mxGeometry>
        </mxCell>
        <mxCell id="s-FJdiKFJ584I3QiDJJ7-10" style="edgeStyle=orthogonalEdgeStyle;rounded=0;orthogonalLoop=1;jettySize=auto;html=1;exitX=0.5;exitY=1;exitDx=0;exitDy=0;exitPerimeter=0;entryX=1;entryY=0.5;entryDx=0;entryDy=0;" edge="1" parent="1" source="s-FJdiKFJ584I3QiDJJ7-8" target="s-FJdiKFJ584I3QiDJJ7-2">
          <mxGeometry relative="1" as="geometry" />
        </mxCell>
        <mxCell id="s-FJdiKFJ584I3QiDJJ7-8" value="" style="strokeWidth=2;html=1;shape=mxgraph.flowchart.decision;whiteSpace=wrap;" vertex="1" parent="1">
          <mxGeometry x="-1120" y="361" width="20" height="50" as="geometry" />
        </mxCell>
        <mxCell id="s-FJdiKFJ584I3QiDJJ7-11" value="Order complete" style="rounded=0;whiteSpace=wrap;html=1;" vertex="1" parent="1">
          <mxGeometry x="-1280" y="570" width="120" height="60" as="geometry" />
        </mxCell>
        <mxCell id="s-FJdiKFJ584I3QiDJJ7-15" style="edgeStyle=orthogonalEdgeStyle;rounded=0;orthogonalLoop=1;jettySize=auto;html=1;exitX=0;exitY=0.5;exitDx=0;exitDy=0;exitPerimeter=0;entryX=1;entryY=0.25;entryDx=0;entryDy=0;" edge="1" parent="1" source="s-FJdiKFJ584I3QiDJJ7-12" target="s-FJdiKFJ584I3QiDJJ7-11">
          <mxGeometry relative="1" as="geometry" />
        </mxCell>
        <mxCell id="s-FJdiKFJ584I3QiDJJ7-12" value="" style="strokeWidth=2;html=1;shape=mxgraph.flowchart.decision;whiteSpace=wrap;" vertex="1" parent="1">
          <mxGeometry x="-1120" y="560" width="20" height="50" as="geometry" />
        </mxCell>
        <mxCell id="s-FJdiKFJ584I3QiDJJ7-14" style="edgeStyle=orthogonalEdgeStyle;rounded=0;orthogonalLoop=1;jettySize=auto;html=1;exitX=1;exitY=0.75;exitDx=0;exitDy=0;entryX=0.5;entryY=0;entryDx=0;entryDy=0;entryPerimeter=0;" edge="1" parent="1" source="s-FJdiKFJ584I3QiDJJ7-2" target="s-FJdiKFJ584I3QiDJJ7-12">
          <mxGeometry relative="1" as="geometry" />
        </mxCell>
        <mxCell id="s-FJdiKFJ584I3QiDJJ7-17" style="edgeStyle=orthogonalEdgeStyle;rounded=0;orthogonalLoop=1;jettySize=auto;html=1;exitX=0;exitY=0.25;exitDx=0;exitDy=0;entryX=0.658;entryY=1.067;entryDx=0;entryDy=0;entryPerimeter=0;" edge="1" parent="1" source="s-FJdiKFJ584I3QiDJJ7-11" target="CR3sOzO-EPzYzs97Lyqt-29">
          <mxGeometry relative="1" as="geometry" />
        </mxCell>
      </root>
    </mxGraphModel>
  </diagram>
</mxfile>
